<svg xmlns="http://www.w3.org/2000/svg" width="97" height="96" fill="none" viewBox="0 0 97 96">
  <g clip-path="url(#a)">
    <path fill="#fff" d="M48.571 90.805c23.64 0 42.805-19.165 42.805-42.805S72.212 5.195 48.571 5.195C24.931 5.195 5.767 24.36 5.767 48S24.93 90.805 48.57 90.805Z"/>
    <g filter="url(#b)">
      <path fill="url(#c)" d="M48.571 0a48 48 0 1 0 48 48 47.861 47.861 0 0 0-47.72-48h-.28Zm.814 49.627L44.387 66.48h26.731a1.35 1.35 0 0 1 1.395 1.302v.442l-2.324 8.02a1.732 1.732 0 0 1-1.744 1.278h-40.91l6.857-23.361-7.67 2.324 1.743-5.346 7.67-2.324 9.647-32.775a1.755 1.755 0 0 1 1.743-1.279H57.87a1.348 1.348 0 0 1 1.395 1.302v.442l-8.136 27.66 7.67-2.324-1.626 5.579-7.787 2.208Z"/>
    </g>
  </g>
  <defs>
    <linearGradient id="c" x1="16.571" x2="76.071" y1="-2.5" y2="102" gradientUnits="userSpaceOnUse">
      <stop stop-color="#3F68A8"/>
      <stop offset="1" stop-color="#2C5493"/>
    </linearGradient>
    <clipPath id="a">
      <path fill="#fff" d="M.571 0h96v96h-96z"/>
    </clipPath>
    <filter id="b" width="112" height="112" x="-7.429" y="-8" color-interpolation-filters="sRGB" filterUnits="userSpaceOnUse">
      <feFlood flood-opacity="0" result="BackgroundImageFix"/>
      <feColorMatrix in="SourceAlpha" result="hardAlpha" values="0 0 0 0 0 0 0 0 0 0 0 0 0 0 0 0 0 0 127 0"/>
      <feOffset/>
      <feGaussianBlur stdDeviation="4"/>
      <feComposite in2="hardAlpha" operator="out"/>
      <feColorMatrix values="0 0 0 0 0.715625 0 0 0 0 0.728516 0 0 0 0 0.75 0 0 0 0.04 0"/>
      <feBlend in2="BackgroundImageFix" result="effect1_dropShadow_955_3996"/>
      <feColorMatrix in="SourceAlpha" result="hardAlpha" values="0 0 0 0 0 0 0 0 0 0 0 0 0 0 0 0 0 0 127 0"/>
      <feOffset dy="2"/>
      <feGaussianBlur stdDeviation="1.5"/>
      <feComposite in2="hardAlpha" operator="out"/>
      <feColorMatrix values="0 0 0 0 0 0 0 0 0 0 0 0 0 0 0 0 0 0 0.02 0"/>
      <feBlend in2="effect1_dropShadow_955_3996" result="effect2_dropShadow_955_3996"/>
      <feBlend in="SourceGraphic" in2="effect2_dropShadow_955_3996" result="shape"/>
    </filter>
  </defs>
</svg>
